<mxfile host="app.diagrams.net" agent="Mozilla/5.0 (Macintosh; Intel Mac OS X 10_15_7) AppleWebKit/537.36 (KHTML, like Gecko) Chrome/133.0.0.0 Safari/537.36" version="26.0.16">
  <diagram name="第 1 页" id="QBeelUMOI0N4kt-8n4QW">
    <mxGraphModel dx="919" dy="716" grid="1" gridSize="10" guides="1" tooltips="1" connect="1" arrows="1" fold="1" page="1" pageScale="1" pageWidth="827" pageHeight="1169" math="0" shadow="0">
      <root>
        <mxCell id="0" />
        <mxCell id="1" parent="0" />
        <mxCell id="EUan5_HXolfmnnFPAk5N-3" style="edgeStyle=orthogonalEdgeStyle;rounded=0;orthogonalLoop=1;jettySize=auto;html=1;entryX=1;entryY=0.5;entryDx=0;entryDy=0;endArrow=none;startFill=0;" edge="1" parent="1" source="EUan5_HXolfmnnFPAk5N-1" target="EUan5_HXolfmnnFPAk5N-2">
          <mxGeometry relative="1" as="geometry" />
        </mxCell>
        <mxCell id="EUan5_HXolfmnnFPAk5N-1" value="罗佰昌&lt;div&gt;1943年腊月二十八&lt;/div&gt;" style="rounded=0;whiteSpace=wrap;html=1;" vertex="1" parent="1">
          <mxGeometry x="470" y="80" width="120" height="60" as="geometry" />
        </mxCell>
        <mxCell id="EUan5_HXolfmnnFPAk5N-2" value="胡慧荣&lt;br&gt;&lt;div&gt;1955年五月二十三&lt;/div&gt;&lt;div&gt;子时&lt;/div&gt;" style="rounded=0;whiteSpace=wrap;html=1;" vertex="1" parent="1">
          <mxGeometry x="260" y="80" width="120" height="60" as="geometry" />
        </mxCell>
        <mxCell id="EUan5_HXolfmnnFPAk5N-4" value="罗继勇（长子）&lt;div&gt;1980年腊月二十&lt;/div&gt;&lt;div&gt;申时&lt;/div&gt;" style="rounded=0;whiteSpace=wrap;html=1;" vertex="1" parent="1">
          <mxGeometry x="570" y="190" width="120" height="60" as="geometry" />
        </mxCell>
        <mxCell id="EUan5_HXolfmnnFPAk5N-5" value="罗继勇（次子）&lt;div&gt;1986年五二十六&lt;/div&gt;&lt;div&gt;辰时&lt;/div&gt;" style="rounded=0;whiteSpace=wrap;html=1;" vertex="1" parent="1">
          <mxGeometry x="370" y="200" width="120" height="60" as="geometry" />
        </mxCell>
      </root>
    </mxGraphModel>
  </diagram>
</mxfile>
